<svg width="641" height="574" viewBox="0 0 641 574" fill="none" xmlns="http://www.w3.org/2000/svg">
<g clip-path="url(#clip0_29_30)">
<rect width="641" height="574" fill="#FFCE55"/>
<rect x="205.082" y="39" width="398" height="204" transform="rotate(27.9848 205.082 39)" fill="white"/>
<path d="M265.452 312.804L39 321.663L149.192 118.273L265.452 312.804Z" fill="black"/>
<path d="M329.126 290.629L330.566 287.919L346.66 282.187C348.547 281.517 350.133 280.906 351.418 280.353C352.708 279.79 353.765 279.181 354.59 278.525C355.429 277.865 356.1 277.063 356.601 276.12C357.177 275.036 357.415 273.959 357.314 272.889C357.224 271.824 356.847 270.839 356.183 269.933C355.519 269.027 354.63 268.278 353.516 267.686C352.332 267.057 351.168 266.754 350.023 266.776C348.894 266.794 347.857 267.111 346.912 267.728C345.976 268.351 345.196 269.249 344.572 270.423L341.02 268.535C341.98 266.729 343.239 265.365 344.797 264.443C346.355 263.521 348.054 263.059 349.894 263.059C351.745 263.064 353.568 263.544 355.364 264.499C357.17 265.459 358.568 266.69 359.558 268.194C360.548 269.698 361.095 271.308 361.2 273.024C361.305 274.739 360.936 276.39 360.093 277.975C359.491 279.109 358.696 280.109 357.709 280.974C356.737 281.835 355.397 282.66 353.69 283.452C351.998 284.239 349.765 285.111 346.991 286.069L336.132 289.796L336.004 290.036L350.333 297.651L348.574 300.962L329.126 290.629ZM364.621 310.03C362.354 308.825 360.75 307.181 359.81 305.099C358.876 303.007 358.614 300.558 359.024 297.752C359.439 294.936 360.537 291.852 362.318 288.5C364.089 285.169 366.022 282.548 368.118 280.637C370.229 278.722 372.413 277.567 374.67 277.17C376.942 276.769 379.202 277.165 381.45 278.36C383.698 279.554 385.286 281.203 386.215 283.305C387.16 285.402 387.424 287.859 387.009 290.675C386.608 293.487 385.523 296.558 383.753 299.89C381.972 303.241 380.031 305.877 377.93 307.798C375.834 309.708 373.657 310.862 371.4 311.258C369.149 311.644 366.889 311.235 364.621 310.03ZM366.381 306.719C368.629 307.913 370.951 307.757 373.347 306.251C375.743 304.744 378.008 301.984 380.14 297.97C381.559 295.301 382.481 292.876 382.906 290.696C383.341 288.52 383.288 286.659 382.747 285.11C382.216 283.567 381.207 282.4 379.722 281.611C377.495 280.427 375.17 280.601 372.748 282.132C370.331 283.653 368.059 286.416 365.931 290.42C364.513 293.089 363.589 295.506 363.159 297.671C362.729 299.836 362.782 301.686 363.319 303.219C363.865 304.758 364.886 305.924 366.381 306.719ZM388.327 327.027L408.802 288.493L411.271 289.805L390.795 328.339L388.327 327.027ZM410.969 304.468C411.598 302.847 411.495 301.274 410.659 299.748C409.822 298.223 408.47 296.964 406.604 295.972C405.239 295.247 403.928 294.834 402.67 294.731C401.421 294.634 400.306 294.82 399.324 295.289C398.351 295.763 397.603 296.492 397.081 297.475C396.644 298.298 396.463 299.109 396.54 299.909C396.632 300.705 396.885 301.463 397.3 302.185C397.719 302.897 398.203 303.56 398.753 304.173C399.307 304.777 399.83 305.306 400.322 305.76L403.005 308.267C403.696 308.904 404.434 309.67 405.221 310.564C406.017 311.463 406.696 312.473 407.258 313.595C407.835 314.713 408.156 315.926 408.22 317.234C408.284 318.542 407.932 319.918 407.164 321.363C406.279 323.029 405.043 324.302 403.455 325.183C401.878 326.069 400.045 326.466 397.958 326.374C395.881 326.287 393.659 325.614 391.29 324.356C389.083 323.182 387.36 321.81 386.123 320.239C384.896 318.674 384.16 317.009 383.914 315.244C383.678 313.484 383.948 311.729 384.723 309.979L388.576 312.027C388.058 313.244 387.938 314.416 388.215 315.541C388.507 316.661 389.082 317.687 389.938 318.618C390.81 319.545 391.858 320.333 393.082 320.984C394.507 321.741 395.909 322.19 397.288 322.331C398.673 322.462 399.918 322.287 401.023 321.806C402.133 321.315 402.986 320.507 403.584 319.384C404.128 318.36 404.284 317.375 404.053 316.429C403.823 315.483 403.347 314.561 402.627 313.664C401.907 312.766 401.086 311.879 400.162 311.002L396.944 307.903C394.904 305.931 393.523 303.929 392.8 301.898C392.078 299.867 392.269 297.813 393.372 295.736C394.289 294.01 395.556 292.753 397.172 291.964C398.803 291.171 400.6 290.839 402.565 290.969C404.544 291.095 406.517 291.68 408.484 292.725C410.471 293.781 412.048 295.075 413.215 296.609C414.387 298.133 415.099 299.747 415.352 301.451C415.614 303.16 415.357 304.806 414.581 306.388L410.969 304.468Z" fill="black"/>
<line opacity="0.6" x1="324.218" y1="294.535" x2="422.239" y2="346.62" stroke="black" stroke-width="5"/>
<path d="M201.976 96.1674C215.993 102.172 229.696 108.799 244.995 109.563C249.271 109.777 253.334 109.797 257.575 110.748C262.728 111.902 256.8 120.767 260.205 123.995C264.448 128.017 272.598 126.779 277.773 127.485C284.8 128.443 284.195 132.952 283.549 138.326C282.566 146.502 299.223 142.809 303.253 142.215C304.565 142.022 326.137 139.248 325.592 142.099C325.232 143.987 315.48 156.282 319.713 157.634C324.141 159.048 330.027 157.915 334.486 157.859C340.035 157.788 345.822 157.857 351.342 159.001C359.317 160.653 353.619 167.251 353.822 172.022C354.12 179.023 375.801 169.981 379.332 175.165C381.707 178.652 380.634 183.438 383.354 187.042C385.458 189.83 387.557 188.271 390.173 189.095C390.893 189.322 389.131 197.77 389.508 199.118C391.237 205.316 405.361 196.693 408.298 195.548C412.152 194.045 409.327 200.955 409.832 202.73C411.014 206.884 417.299 203.157 419.397 206.585C422.953 212.396 425.421 216.711 431.96 220.059C433.448 220.82 445.237 225.097 442.116 225.357" stroke="black" stroke-width="3" stroke-linecap="round"/>
<path d="M179.294 138.678C191.806 144.34 201.44 149.24 214.354 153.167C223.181 155.851 230.057 155.204 238.516 156.737C242.915 157.534 242.614 160.819 242.738 163.467C243.073 170.593 258.324 161.144 262.932 163.498C269.789 167.001 257.241 179.565 270.935 181.211C281.821 182.519 294.698 174.376 296.189 189.453C296.712 194.745 297.261 197.417 304.375 197.649C308.433 197.781 312.59 196.735 316.712 197.301C320.183 197.778 320.137 200.687 320.989 202.828C323.439 208.991 328.007 209.772 334.274 210.479C338.452 210.95 337.604 214.288 337.969 216.978C338.272 219.215 337.884 222.733 339.395 224.934C341.84 228.496 351.004 223.022 352.856 222.226C353.302 222.035 361.248 217.822 361.545 219.448C362.48 224.563 359.952 228.832 361.771 234.31C365.127 244.415 382.626 223.676 387.45 224.141C388.082 224.202 387.319 225.179 387.16 225.664C386.377 228.054 385.631 230.468 384.782 232.831C384.478 233.674 380.16 242.621 380.871 242.881C384.272 244.128 391.833 241.467 394.583 241.046C402.809 239.788 414.291 236.748 423.545 238.884C424.047 238.999 410.853 258.152 411.782 259.553C411.897 259.726 417.104 259.754 417.629 259.8C421.445 260.136 420.175 262.457 420.131 264.877C420.097 266.762 419.609 271.088 421.607 272.86C424.072 275.044 431.722 273.897 434.569 274.028C439.644 274.259 434.015 276.538 437.567 279.269C439.976 281.121 453.238 288.6 453.487 285.263" stroke="black" stroke-width="3" stroke-linecap="round"/>
<path d="M288.366 324.435L523.893 311.988L413.989 524.052L288.366 324.435Z" fill="black"/>
<path d="M275.898 319.304L403.898 523.208L35.282 327.338L275.898 319.304Z" fill="black"/>
</g>
<defs>
<clipPath id="clip0_29_30">
<rect width="641" height="574" fill="white"/>
</clipPath>
</defs>
</svg>
